<?xml version="1.0"?>
<svg width="30" height="30" viewBox="0 0 512 512" xmlns="http://www.w3.org/2000/svg" xmlns:svg="http://www.w3.org/2000/svg" enable-background="new 0 0 512 512" version="1.1" xml:space="preserve">
 <g class="layer">
  <title>Layer 1</title>
  <g id="svg_24" transform="rotate(89.8849, 254.998, 255.998)">
   <g id="svg_1">
    <path d="m504.02,165.06l-157.91,-157.91c-9.45,-9.46 -24.52,-9.57 -33.97,-0.12l-55.41,55.42c-9.46,9.45 -9.25,24.5 0.2,33.95c9.44,9.45 24.15,10 34.42,-0.27l123.69,123.69c-10.27,10.26 -9.89,24.8 -0.44,34.25c9.45,9.46 24.33,9.49 33.78,0.04l55.42,-55.42c9.45,-9.45 9.67,-24.18 0.22,-33.63z" fill="#F66131" id="svg_2"/>
    <path d="m253.08,415.6c-9.45,-9.45 -24,-9.83 -34.26,0.44l-123.69,-123.69c10.27,-10.27 9.72,-24.97 0.27,-34.43c-9.45,-9.45 -24.5,-9.65 -33.95,-0.2l-55.42,55.42c-9.45,9.45 -9.34,24.52 0.11,33.97l157.92,157.91c9.45,9.45 24.18,9.23 33.63,-0.22l55.42,-55.42c9.45,-9.45 9.42,-24.33 -0.03,-33.78z" fill="#F66131" id="svg_3"/>
   </g>
   <path d="m455.7,260.48c9.45,-9.45 9.45,-24.77 0,-34.22l-172.26,-172.27c-9.45,-9.45 -24.78,-9.45 -34.23,0l-193.94,193.94c-9.45,9.45 -9.45,24.77 0,34.23l172.27,172.26c9.45,9.45 24.77,9.45 34.22,0l193.94,-193.94z" fill="#C6C6C6" id="svg_4"/>
   <g id="svg_5">
    <path d="m423.43,84.47l-77.32,-77.32c-9.45,-9.45 -24.52,-9.57 -33.97,-0.12l-55.41,55.42c-9.46,9.45 -9.25,24.5 0.2,33.95c9.44,9.45 24.15,10 34.42,-0.27l60.21,60.21l71.87,-71.87z" fill="#F68B4D" id="svg_6"/>
    <path d="m155.34,352.56l-60.21,-60.21c10.27,-10.27 9.72,-24.97 0.27,-34.43c-9.45,-9.45 -24.5,-9.65 -33.95,-0.2l-55.42,55.42c-9.45,9.45 -9.34,24.52 0.11,33.97l77.33,77.32l71.87,-71.87z" fill="#F68B4D" id="svg_7"/>
   </g>
   <path d="m368.68,139.23l-85.24,-85.24c-9.45,-9.45 -24.78,-9.45 -34.23,0l-193.94,193.94c-9.45,9.45 -9.45,24.77 0,34.23l85.24,85.23l228.17,-228.16z" fill="#E2E2E2" id="svg_8"/>
   <g id="svg_9"/>
   <g id="svg_10"/>
   <g id="svg_11"/>
   <g id="svg_12"/>
   <g id="svg_13"/>
   <g id="svg_14"/>
   <g id="svg_15"/>
   <g id="svg_16"/>
   <g id="svg_17"/>
   <g id="svg_18"/>
   <g id="svg_19"/>
   <g id="svg_20"/>
   <g id="svg_21"/>
   <g id="svg_22"/>
   <g id="svg_23"/>
  </g>
 </g>

</svg>