<?xml version="1.0" encoding="iso-8859-1"?>
<!-- Generator: Adobe Illustrator 19.0.0, SVG Export Plug-In . SVG Version: 6.00 Build 0)  -->
<svg version="1.1" id="Layer_1" xmlns="http://www.w3.org/2000/svg" xmlns:xlink="http://www.w3.org/1999/xlink" x="0px" y="0px"
	 viewBox="0 0 512 512" style="enable-background:new 0 0 512 512;" width="30" height="30" xml:space="preserve">
<g>
	<path style="fill:#F66131;" d="M505.022,165.057L347.11,7.146c-9.451-9.451-24.517-9.564-33.968-0.113L257.725,62.45
		c-9.451,9.451-9.249,24.501,0.2,33.952c9.449,9.451,24.159,9.995,34.426-0.273l123.687,123.687
		c-10.267,10.267-9.89,24.807-0.44,34.258c9.451,9.451,24.334,9.485,33.785,0.034l55.418-55.418
		C514.252,189.24,514.473,174.507,505.022,165.057z"/>
	<path style="fill:#F66131;" d="M254.076,415.597c-9.451-9.451-23.991-9.827-34.258,0.44L96.13,292.35
		c10.267-10.267,9.724-24.975,0.273-34.426c-9.451-9.451-24.501-9.651-33.952-0.2L7.032,313.142
		c-9.451,9.451-9.338,24.517,0.113,33.968l157.911,157.911c9.451,9.451,24.183,9.23,33.634-0.221l55.418-55.418
		C263.559,439.931,263.527,425.048,254.076,415.597z"/>
</g>
<path style="fill:#C6C6C6;" d="M456.701,260.48c9.451-9.451,9.451-24.773,0-34.224L284.437,53.99
	c-9.451-9.451-24.773-9.451-34.224,0L56.274,247.931c-9.451,9.451-9.451,24.773,0,34.224l172.264,172.264
	c9.451,9.451,24.773,9.451,34.224,0L456.701,260.48z"/>
<g>
	<path style="fill:#F68B4D;" d="M424.434,84.468L347.11,7.146c-9.451-9.451-24.517-9.564-33.968-0.113L257.725,62.45
		c-9.451,9.451-9.249,24.501,0.2,33.952c9.449,9.451,24.159,9.995,34.426-0.273l60.211,60.211L424.434,84.468z"/>
	<path style="fill:#F68B4D;" d="M156.341,352.561L96.13,292.35c10.267-10.267,9.724-24.975,0.273-34.426
		c-9.451-9.451-24.501-9.651-33.952-0.2L7.032,313.142c-9.451,9.451-9.338,24.517,0.113,33.968l77.324,77.324L156.341,352.561z"/>
</g>
<path style="fill:#E2E2E2;" d="M369.675,139.227L284.437,53.99c-9.451-9.451-24.773-9.451-34.224,0L56.274,247.931
	c-9.451,9.451-9.451,24.773,0,34.224l85.237,85.237L369.675,139.227z"/>
<g>
</g>
<g>
</g>
<g>
</g>
<g>
</g>
<g>
</g>
<g>
</g>
<g>
</g>
<g>
</g>
<g>
</g>
<g>
</g>
<g>
</g>
<g>
</g>
<g>
</g>
<g>
</g>
<g>
</g>
</svg>
